<mxfile host="app.diagrams.net" modified="2023-11-02T07:10:27.404Z" agent="Mozilla/5.0 (Windows NT 10.0; Win64; x64; rv:109.0) Gecko/20100101 Firefox/119.0" etag="2egMhZ7z5_Bx0mS_ytAL" version="22.0.8" type="github">
  <diagram name="Seite-1" id="beppHXPCSBncRroZZROe">
    <mxGraphModel dx="989" dy="501" grid="1" gridSize="10" guides="1" tooltips="1" connect="1" arrows="1" fold="1" page="1" pageScale="1" pageWidth="827" pageHeight="1169" math="0" shadow="0">
      <root>
        <mxCell id="0" />
        <mxCell id="1" parent="0" />
        <mxCell id="D15QKk4ikK3wPIelzojk-1" value="u09 Spielen" style="swimlane;html=1;childLayout=stackLayout;startSize=20;rounded=0;shadow=0;comic=0;labelBackgroundColor=none;strokeWidth=1;fontFamily=Verdana;fontSize=12;align=left;" parent="1" vertex="1">
          <mxGeometry x="40" y="20" width="660" height="520" as="geometry" />
        </mxCell>
        <mxCell id="D15QKk4ikK3wPIelzojk-2" value="Anwender" style="swimlane;html=1;startSize=20;" parent="D15QKk4ikK3wPIelzojk-1" vertex="1">
          <mxGeometry y="20" width="250" height="500" as="geometry">
            <mxRectangle y="20" width="40" height="280" as="alternateBounds" />
          </mxGeometry>
        </mxCell>
        <mxCell id="D15QKk4ikK3wPIelzojk-3" value="a09.3&lt;div&gt;Bewegen&lt;/div&gt;" style="rounded=1;whiteSpace=wrap;html=1;" parent="D15QKk4ikK3wPIelzojk-2" vertex="1">
          <mxGeometry x="160" y="250" width="70" height="30" as="geometry" />
        </mxCell>
        <mxCell id="knTTwI4g2bbmNOiAuJ_e-7" style="edgeStyle=orthogonalEdgeStyle;rounded=0;orthogonalLoop=1;jettySize=auto;html=1;exitX=0.5;exitY=1;exitDx=0;exitDy=0;entryX=0.5;entryY=0;entryDx=0;entryDy=0;" edge="1" parent="D15QKk4ikK3wPIelzojk-2" source="D15QKk4ikK3wPIelzojk-7" target="AxLiDEijD6XnTWHU-mo1-1">
          <mxGeometry relative="1" as="geometry" />
        </mxCell>
        <mxCell id="D15QKk4ikK3wPIelzojk-7" value="&lt;div&gt;a09.2&lt;/div&gt;&lt;div&gt;Spiel Pausieren&lt;/div&gt;" style="rounded=1;whiteSpace=wrap;html=1;" parent="D15QKk4ikK3wPIelzojk-2" vertex="1">
          <mxGeometry x="20" y="90" width="95" height="30" as="geometry" />
        </mxCell>
        <mxCell id="D15QKk4ikK3wPIelzojk-11" value="Weiter mit u13&lt;br&gt;(Spiel Pausieren)" style="text;html=1;strokeColor=none;fillColor=none;align=center;verticalAlign=middle;whiteSpace=wrap;rounded=0;fontSize=8;" parent="D15QKk4ikK3wPIelzojk-2" vertex="1">
          <mxGeometry x="27.5" y="180" width="80" height="20" as="geometry" />
        </mxCell>
        <mxCell id="AxLiDEijD6XnTWHU-mo1-1" value="" style="ellipse;html=1;shape=endState;fillColor=#000000;strokeColor=#ff0000;" parent="D15QKk4ikK3wPIelzojk-2" vertex="1">
          <mxGeometry x="52.5" y="150" width="30" height="30" as="geometry" />
        </mxCell>
        <mxCell id="knTTwI4g2bbmNOiAuJ_e-6" style="edgeStyle=orthogonalEdgeStyle;rounded=0;orthogonalLoop=1;jettySize=auto;html=1;exitX=0;exitY=0.5;exitDx=0;exitDy=0;entryX=1;entryY=0.5;entryDx=0;entryDy=0;" edge="1" parent="D15QKk4ikK3wPIelzojk-2" source="D15QKk4ikK3wPIelzojk-29" target="D15QKk4ikK3wPIelzojk-7">
          <mxGeometry relative="1" as="geometry" />
        </mxCell>
        <mxCell id="knTTwI4g2bbmNOiAuJ_e-9" style="edgeStyle=orthogonalEdgeStyle;rounded=0;orthogonalLoop=1;jettySize=auto;html=1;exitX=0.5;exitY=1;exitDx=0;exitDy=0;entryX=0.5;entryY=0;entryDx=0;entryDy=0;" edge="1" parent="D15QKk4ikK3wPIelzojk-2" source="D15QKk4ikK3wPIelzojk-29" target="D15QKk4ikK3wPIelzojk-3">
          <mxGeometry relative="1" as="geometry" />
        </mxCell>
        <mxCell id="D15QKk4ikK3wPIelzojk-29" value="" style="rhombus;whiteSpace=wrap;html=1;" parent="D15QKk4ikK3wPIelzojk-2" vertex="1">
          <mxGeometry x="180" y="90" width="30" height="30" as="geometry" />
        </mxCell>
        <mxCell id="knTTwI4g2bbmNOiAuJ_e-10" style="edgeStyle=orthogonalEdgeStyle;rounded=0;orthogonalLoop=1;jettySize=auto;html=1;exitX=1.194;exitY=0.444;exitDx=0;exitDy=0;entryX=0;entryY=1;entryDx=0;entryDy=0;exitPerimeter=0;" edge="1" parent="D15QKk4ikK3wPIelzojk-2" source="AxLiDEijD6XnTWHU-mo1-1" target="D15QKk4ikK3wPIelzojk-29">
          <mxGeometry relative="1" as="geometry">
            <mxPoint x="60" y="182.5" as="sourcePoint" />
            <mxPoint x="165" y="130" as="targetPoint" />
          </mxGeometry>
        </mxCell>
        <mxCell id="D15QKk4ikK3wPIelzojk-14" value="System" style="swimlane;html=1;startSize=20;" parent="D15QKk4ikK3wPIelzojk-1" vertex="1">
          <mxGeometry x="250" y="20" width="410" height="500" as="geometry" />
        </mxCell>
        <mxCell id="knTTwI4g2bbmNOiAuJ_e-29" style="edgeStyle=orthogonalEdgeStyle;rounded=0;orthogonalLoop=1;jettySize=auto;html=1;exitX=0;exitY=0.5;exitDx=0;exitDy=0;entryX=1;entryY=0.5;entryDx=0;entryDy=0;" edge="1" parent="D15QKk4ikK3wPIelzojk-14" source="D15QKk4ikK3wPIelzojk-15" target="D15QKk4ikK3wPIelzojk-44">
          <mxGeometry relative="1" as="geometry" />
        </mxCell>
        <mxCell id="D15QKk4ikK3wPIelzojk-15" value="" style="ellipse;html=1;shape=startState;fillColor=#000000;strokeColor=#ff0000;" parent="D15QKk4ikK3wPIelzojk-14" vertex="1">
          <mxGeometry x="367.5" y="30" width="30" height="30" as="geometry" />
        </mxCell>
        <mxCell id="D15QKk4ikK3wPIelzojk-16" value="&lt;div&gt;a09.1&lt;/div&gt;&lt;div&gt;Zeigt Spiel an&lt;/div&gt;" style="rounded=1;whiteSpace=wrap;html=1;" parent="D15QKk4ikK3wPIelzojk-14" vertex="1">
          <mxGeometry x="172.5" y="40" width="85" height="30" as="geometry" />
        </mxCell>
        <mxCell id="knTTwI4g2bbmNOiAuJ_e-22" style="edgeStyle=orthogonalEdgeStyle;rounded=0;orthogonalLoop=1;jettySize=auto;html=1;exitX=1;exitY=0.5;exitDx=0;exitDy=0;entryX=0;entryY=0.5;entryDx=0;entryDy=0;" edge="1" parent="D15QKk4ikK3wPIelzojk-14" source="D15QKk4ikK3wPIelzojk-19" target="AxLiDEijD6XnTWHU-mo1-2">
          <mxGeometry relative="1" as="geometry" />
        </mxCell>
        <mxCell id="D15QKk4ikK3wPIelzojk-19" value="&lt;div&gt;a09.4&lt;/div&gt;&lt;div&gt;Leben Verloren&lt;/div&gt;" style="rounded=1;whiteSpace=wrap;html=1;" parent="D15QKk4ikK3wPIelzojk-14" vertex="1">
          <mxGeometry x="197.5" y="400" width="90" height="30" as="geometry" />
        </mxCell>
        <mxCell id="knTTwI4g2bbmNOiAuJ_e-15" style="edgeStyle=orthogonalEdgeStyle;rounded=0;orthogonalLoop=1;jettySize=auto;html=1;exitX=0.5;exitY=0;exitDx=0;exitDy=0;entryX=0.5;entryY=1;entryDx=0;entryDy=0;" edge="1" parent="D15QKk4ikK3wPIelzojk-14" source="D15QKk4ikK3wPIelzojk-24" target="D15QKk4ikK3wPIelzojk-13">
          <mxGeometry relative="1" as="geometry" />
        </mxCell>
        <mxCell id="knTTwI4g2bbmNOiAuJ_e-52" style="edgeStyle=orthogonalEdgeStyle;rounded=0;orthogonalLoop=1;jettySize=auto;html=1;exitX=0.5;exitY=1;exitDx=0;exitDy=0;entryX=0.5;entryY=0;entryDx=0;entryDy=0;" edge="1" parent="D15QKk4ikK3wPIelzojk-14" source="D15QKk4ikK3wPIelzojk-24" target="knTTwI4g2bbmNOiAuJ_e-34">
          <mxGeometry relative="1" as="geometry" />
        </mxCell>
        <mxCell id="D15QKk4ikK3wPIelzojk-24" value="" style="rhombus;whiteSpace=wrap;html=1;" parent="D15QKk4ikK3wPIelzojk-14" vertex="1">
          <mxGeometry x="50" y="250" width="30" height="30" as="geometry" />
        </mxCell>
        <mxCell id="knTTwI4g2bbmNOiAuJ_e-26" style="edgeStyle=orthogonalEdgeStyle;rounded=0;orthogonalLoop=1;jettySize=auto;html=1;exitX=1;exitY=0.5;exitDx=0;exitDy=0;entryX=0;entryY=0.5;entryDx=0;entryDy=0;" edge="1" parent="D15QKk4ikK3wPIelzojk-14" source="D15QKk4ikK3wPIelzojk-31" target="AxLiDEijD6XnTWHU-mo1-3">
          <mxGeometry relative="1" as="geometry" />
        </mxCell>
        <mxCell id="D15QKk4ikK3wPIelzojk-31" value="&lt;div&gt;a09.6&lt;/div&gt;&lt;div&gt;Level abschließen&lt;/div&gt;" style="rounded=1;whiteSpace=wrap;html=1;" parent="D15QKk4ikK3wPIelzojk-14" vertex="1">
          <mxGeometry x="187.5" y="90" width="110" height="30" as="geometry" />
        </mxCell>
        <mxCell id="D15QKk4ikK3wPIelzojk-40" value="Weiter in u10&lt;br&gt;(Leben Verloren)" style="text;html=1;strokeColor=none;fillColor=none;align=center;verticalAlign=middle;whiteSpace=wrap;rounded=0;fontSize=8;" parent="D15QKk4ikK3wPIelzojk-14" vertex="1">
          <mxGeometry x="302.5" y="430" width="60" height="20" as="geometry" />
        </mxCell>
        <mxCell id="D15QKk4ikK3wPIelzojk-41" value="Weiter in u11&lt;br&gt;(Lichtquelle aus)" style="text;html=1;strokeColor=none;fillColor=none;align=center;verticalAlign=middle;whiteSpace=wrap;rounded=0;fontSize=8;" parent="D15QKk4ikK3wPIelzojk-14" vertex="1">
          <mxGeometry x="306.25" y="210" width="67.5" height="20" as="geometry" />
        </mxCell>
        <mxCell id="D15QKk4ikK3wPIelzojk-42" value="Weiter in u12&lt;br&gt;(Level Abschließen)" style="text;html=1;strokeColor=none;fillColor=none;align=center;verticalAlign=middle;whiteSpace=wrap;rounded=0;fontSize=8;" parent="D15QKk4ikK3wPIelzojk-14" vertex="1">
          <mxGeometry x="308.75" y="120" width="72.5" height="20" as="geometry" />
        </mxCell>
        <mxCell id="knTTwI4g2bbmNOiAuJ_e-31" style="edgeStyle=orthogonalEdgeStyle;rounded=0;orthogonalLoop=1;jettySize=auto;html=1;exitX=0;exitY=0.5;exitDx=0;exitDy=0;entryX=1;entryY=0.5;entryDx=0;entryDy=0;" edge="1" parent="D15QKk4ikK3wPIelzojk-14" source="D15QKk4ikK3wPIelzojk-44" target="D15QKk4ikK3wPIelzojk-16">
          <mxGeometry relative="1" as="geometry" />
        </mxCell>
        <mxCell id="D15QKk4ikK3wPIelzojk-44" value="" style="rhombus;whiteSpace=wrap;html=1;rotation=0;" parent="D15QKk4ikK3wPIelzojk-14" vertex="1">
          <mxGeometry x="312.5" y="30" width="30" height="30" as="geometry" />
        </mxCell>
        <mxCell id="knTTwI4g2bbmNOiAuJ_e-96" style="edgeStyle=orthogonalEdgeStyle;rounded=0;orthogonalLoop=1;jettySize=auto;html=1;exitX=1;exitY=0.5;exitDx=0;exitDy=0;entryX=0;entryY=0.5;entryDx=0;entryDy=0;" edge="1" parent="D15QKk4ikK3wPIelzojk-14" source="AxLiDEijD6XnTWHU-mo1-2" target="knTTwI4g2bbmNOiAuJ_e-95">
          <mxGeometry relative="1" as="geometry" />
        </mxCell>
        <mxCell id="AxLiDEijD6XnTWHU-mo1-2" value="" style="ellipse;html=1;shape=endState;fillColor=#000000;strokeColor=#ff0000;" parent="D15QKk4ikK3wPIelzojk-14" vertex="1">
          <mxGeometry x="317.5" y="400" width="30" height="30" as="geometry" />
        </mxCell>
        <mxCell id="AxLiDEijD6XnTWHU-mo1-3" value="" style="ellipse;html=1;shape=endState;fillColor=#000000;strokeColor=#ff0000;" parent="D15QKk4ikK3wPIelzojk-14" vertex="1">
          <mxGeometry x="330" y="90" width="30" height="30" as="geometry" />
        </mxCell>
        <mxCell id="knTTwI4g2bbmNOiAuJ_e-30" style="edgeStyle=orthogonalEdgeStyle;rounded=0;orthogonalLoop=1;jettySize=auto;html=1;exitX=1;exitY=0.5;exitDx=0;exitDy=0;entryX=0.5;entryY=1;entryDx=0;entryDy=0;" edge="1" parent="D15QKk4ikK3wPIelzojk-14" source="AxLiDEijD6XnTWHU-mo1-4" target="D15QKk4ikK3wPIelzojk-44">
          <mxGeometry relative="1" as="geometry">
            <Array as="points">
              <mxPoint x="390" y="195" />
              <mxPoint x="390" y="70" />
              <mxPoint x="327" y="70" />
            </Array>
          </mxGeometry>
        </mxCell>
        <mxCell id="AxLiDEijD6XnTWHU-mo1-4" value="" style="ellipse;html=1;shape=endState;fillColor=#000000;strokeColor=#ff0000;" parent="D15QKk4ikK3wPIelzojk-14" vertex="1">
          <mxGeometry x="325" y="180" width="30" height="30" as="geometry" />
        </mxCell>
        <mxCell id="knTTwI4g2bbmNOiAuJ_e-23" style="edgeStyle=orthogonalEdgeStyle;rounded=0;orthogonalLoop=1;jettySize=auto;html=1;exitX=1;exitY=0.5;exitDx=0;exitDy=0;entryX=0;entryY=0.5;entryDx=0;entryDy=0;" edge="1" parent="D15QKk4ikK3wPIelzojk-14" source="D15QKk4ikK3wPIelzojk-28" target="AxLiDEijD6XnTWHU-mo1-4">
          <mxGeometry relative="1" as="geometry" />
        </mxCell>
        <mxCell id="D15QKk4ikK3wPIelzojk-28" value="&lt;div&gt;a09.5&lt;/div&gt;&lt;div&gt;Lichtquelle aus&lt;/div&gt;" style="rounded=1;whiteSpace=wrap;html=1;" parent="D15QKk4ikK3wPIelzojk-14" vertex="1">
          <mxGeometry x="197.5" y="180" width="90" height="30" as="geometry" />
        </mxCell>
        <mxCell id="knTTwI4g2bbmNOiAuJ_e-16" style="edgeStyle=orthogonalEdgeStyle;rounded=0;orthogonalLoop=1;jettySize=auto;html=1;exitX=0.5;exitY=0;exitDx=0;exitDy=0;entryX=0.5;entryY=1;entryDx=0;entryDy=0;" edge="1" parent="D15QKk4ikK3wPIelzojk-14" source="D15QKk4ikK3wPIelzojk-13" target="D15QKk4ikK3wPIelzojk-6">
          <mxGeometry relative="1" as="geometry" />
        </mxCell>
        <mxCell id="D15QKk4ikK3wPIelzojk-13" value="" style="rhombus;whiteSpace=wrap;html=1;rotation=0;" parent="D15QKk4ikK3wPIelzojk-14" vertex="1">
          <mxGeometry x="50" y="180" width="30" height="30" as="geometry" />
        </mxCell>
        <mxCell id="D15QKk4ikK3wPIelzojk-6" value="" style="rhombus;whiteSpace=wrap;html=1;rotation=0;" parent="D15QKk4ikK3wPIelzojk-14" vertex="1">
          <mxGeometry x="50" y="90" width="30" height="30" as="geometry" />
        </mxCell>
        <mxCell id="D15QKk4ikK3wPIelzojk-32" value="" style="endArrow=classic;html=1;rounded=0;entryX=0;entryY=0.5;entryDx=0;entryDy=0;exitX=1;exitY=0.5;exitDx=0;exitDy=0;" parent="D15QKk4ikK3wPIelzojk-14" source="D15QKk4ikK3wPIelzojk-6" target="D15QKk4ikK3wPIelzojk-31" edge="1">
          <mxGeometry relative="1" as="geometry">
            <mxPoint x="270" y="110" as="sourcePoint" />
            <mxPoint x="397.5" y="250" as="targetPoint" />
            <Array as="points" />
          </mxGeometry>
        </mxCell>
        <mxCell id="D15QKk4ikK3wPIelzojk-33" value="&lt;div&gt;Wenn level&lt;/div&gt;&lt;div&gt;&amp;nbsp;abgeschlossen&lt;/div&gt;" style="edgeLabel;resizable=0;html=1;align=center;verticalAlign=middle;" parent="D15QKk4ikK3wPIelzojk-32" connectable="0" vertex="1">
          <mxGeometry relative="1" as="geometry" />
        </mxCell>
        <mxCell id="D15QKk4ikK3wPIelzojk-25" value="" style="endArrow=classic;html=1;rounded=0;exitX=1;exitY=0.5;exitDx=0;exitDy=0;entryX=0;entryY=0.5;entryDx=0;entryDy=0;" parent="D15QKk4ikK3wPIelzojk-14" source="D15QKk4ikK3wPIelzojk-13" target="D15QKk4ikK3wPIelzojk-28" edge="1">
          <mxGeometry relative="1" as="geometry">
            <mxPoint x="530" y="500" as="sourcePoint" />
            <mxPoint x="640" y="405" as="targetPoint" />
          </mxGeometry>
        </mxCell>
        <mxCell id="D15QKk4ikK3wPIelzojk-26" value="&lt;div&gt;Wenn Lichtquelle&amp;nbsp;&lt;/div&gt;&lt;div&gt;aus &lt;/div&gt;" style="edgeLabel;resizable=0;html=1;align=center;verticalAlign=middle;" parent="D15QKk4ikK3wPIelzojk-25" connectable="0" vertex="1">
          <mxGeometry relative="1" as="geometry" />
        </mxCell>
        <mxCell id="knTTwI4g2bbmNOiAuJ_e-34" value="" style="rhombus;whiteSpace=wrap;html=1;" vertex="1" parent="D15QKk4ikK3wPIelzojk-14">
          <mxGeometry x="50" y="330" width="30" height="30" as="geometry" />
        </mxCell>
        <mxCell id="knTTwI4g2bbmNOiAuJ_e-99" style="edgeStyle=orthogonalEdgeStyle;rounded=0;orthogonalLoop=1;jettySize=auto;html=1;exitX=1;exitY=0.5;exitDx=0;exitDy=0;entryX=0.5;entryY=0;entryDx=0;entryDy=0;" edge="1" parent="D15QKk4ikK3wPIelzojk-14" source="knTTwI4g2bbmNOiAuJ_e-35" target="knTTwI4g2bbmNOiAuJ_e-97">
          <mxGeometry relative="1" as="geometry" />
        </mxCell>
        <mxCell id="knTTwI4g2bbmNOiAuJ_e-35" value="Schriftrolle aufgehoben" style="rounded=1;whiteSpace=wrap;html=1;" vertex="1" parent="D15QKk4ikK3wPIelzojk-14">
          <mxGeometry x="200.5" y="245" width="84" height="40" as="geometry" />
        </mxCell>
        <mxCell id="knTTwI4g2bbmNOiAuJ_e-98" style="edgeStyle=orthogonalEdgeStyle;rounded=0;orthogonalLoop=1;jettySize=auto;html=1;exitX=1;exitY=0.5;exitDx=0;exitDy=0;entryX=0;entryY=0.5;entryDx=0;entryDy=0;" edge="1" parent="D15QKk4ikK3wPIelzojk-14" source="knTTwI4g2bbmNOiAuJ_e-36" target="knTTwI4g2bbmNOiAuJ_e-97">
          <mxGeometry relative="1" as="geometry" />
        </mxCell>
        <mxCell id="knTTwI4g2bbmNOiAuJ_e-36" value="Fackel berührt" style="rounded=1;whiteSpace=wrap;html=1;" vertex="1" parent="D15QKk4ikK3wPIelzojk-14">
          <mxGeometry x="205.5" y="325" width="82" height="40" as="geometry" />
        </mxCell>
        <mxCell id="knTTwI4g2bbmNOiAuJ_e-44" value="" style="endArrow=classic;html=1;rounded=0;exitX=1;exitY=0.5;exitDx=0;exitDy=0;entryX=0;entryY=0.5;entryDx=0;entryDy=0;" edge="1" parent="D15QKk4ikK3wPIelzojk-14" source="D15QKk4ikK3wPIelzojk-24" target="knTTwI4g2bbmNOiAuJ_e-35">
          <mxGeometry relative="1" as="geometry">
            <mxPoint x="80" y="320" as="sourcePoint" />
            <mxPoint x="180" y="320" as="targetPoint" />
          </mxGeometry>
        </mxCell>
        <mxCell id="knTTwI4g2bbmNOiAuJ_e-45" value="&lt;div&gt;Wenn Schriftrolle&lt;/div&gt;&lt;div&gt;&amp;nbsp;aufgehoben&lt;/div&gt;" style="edgeLabel;resizable=0;html=1;align=center;verticalAlign=middle;" connectable="0" vertex="1" parent="knTTwI4g2bbmNOiAuJ_e-44">
          <mxGeometry relative="1" as="geometry" />
        </mxCell>
        <mxCell id="knTTwI4g2bbmNOiAuJ_e-49" value="" style="endArrow=classic;html=1;rounded=0;exitX=1;exitY=0.5;exitDx=0;exitDy=0;entryX=0;entryY=0.5;entryDx=0;entryDy=0;" edge="1" parent="D15QKk4ikK3wPIelzojk-14" source="knTTwI4g2bbmNOiAuJ_e-34" target="knTTwI4g2bbmNOiAuJ_e-36">
          <mxGeometry relative="1" as="geometry">
            <mxPoint x="20" y="280" as="sourcePoint" />
            <mxPoint x="120" y="280" as="targetPoint" />
          </mxGeometry>
        </mxCell>
        <mxCell id="knTTwI4g2bbmNOiAuJ_e-50" value="Wenn Fackel &lt;br&gt;&lt;div&gt;berührt&lt;/div&gt;" style="edgeLabel;resizable=0;html=1;align=center;verticalAlign=middle;" connectable="0" vertex="1" parent="knTTwI4g2bbmNOiAuJ_e-49">
          <mxGeometry relative="1" as="geometry" />
        </mxCell>
        <mxCell id="knTTwI4g2bbmNOiAuJ_e-92" value="" style="endArrow=classic;html=1;rounded=0;exitX=0.5;exitY=1;exitDx=0;exitDy=0;entryX=0;entryY=0.5;entryDx=0;entryDy=0;" edge="1" parent="D15QKk4ikK3wPIelzojk-14" source="knTTwI4g2bbmNOiAuJ_e-34" target="D15QKk4ikK3wPIelzojk-19">
          <mxGeometry relative="1" as="geometry">
            <mxPoint x="70" y="414.65999999999997" as="sourcePoint" />
            <mxPoint x="170" y="414.65999999999997" as="targetPoint" />
            <Array as="points">
              <mxPoint x="65" y="415" />
            </Array>
          </mxGeometry>
        </mxCell>
        <mxCell id="knTTwI4g2bbmNOiAuJ_e-93" value="Wenn getroffen" style="edgeLabel;resizable=0;html=1;align=center;verticalAlign=middle;" connectable="0" vertex="1" parent="knTTwI4g2bbmNOiAuJ_e-92">
          <mxGeometry relative="1" as="geometry" />
        </mxCell>
        <mxCell id="knTTwI4g2bbmNOiAuJ_e-95" value="" style="rhombus;whiteSpace=wrap;html=1;" vertex="1" parent="D15QKk4ikK3wPIelzojk-14">
          <mxGeometry x="367.5" y="400" width="30" height="30" as="geometry" />
        </mxCell>
        <mxCell id="knTTwI4g2bbmNOiAuJ_e-100" style="edgeStyle=orthogonalEdgeStyle;rounded=0;orthogonalLoop=1;jettySize=auto;html=1;exitX=0.5;exitY=1;exitDx=0;exitDy=0;entryX=0.5;entryY=0;entryDx=0;entryDy=0;" edge="1" parent="D15QKk4ikK3wPIelzojk-14" source="knTTwI4g2bbmNOiAuJ_e-97" target="knTTwI4g2bbmNOiAuJ_e-95">
          <mxGeometry relative="1" as="geometry" />
        </mxCell>
        <mxCell id="knTTwI4g2bbmNOiAuJ_e-97" value="" style="rhombus;whiteSpace=wrap;html=1;" vertex="1" parent="D15QKk4ikK3wPIelzojk-14">
          <mxGeometry x="367.5" y="330" width="30" height="30" as="geometry" />
        </mxCell>
        <mxCell id="knTTwI4g2bbmNOiAuJ_e-8" style="edgeStyle=orthogonalEdgeStyle;rounded=0;orthogonalLoop=1;jettySize=auto;html=1;exitX=0;exitY=0.5;exitDx=0;exitDy=0;entryX=0.5;entryY=0;entryDx=0;entryDy=0;" edge="1" parent="D15QKk4ikK3wPIelzojk-1" source="D15QKk4ikK3wPIelzojk-16" target="D15QKk4ikK3wPIelzojk-29">
          <mxGeometry relative="1" as="geometry" />
        </mxCell>
        <mxCell id="knTTwI4g2bbmNOiAuJ_e-14" style="edgeStyle=orthogonalEdgeStyle;rounded=0;orthogonalLoop=1;jettySize=auto;html=1;exitX=1;exitY=0.5;exitDx=0;exitDy=0;entryX=0;entryY=0.5;entryDx=0;entryDy=0;" edge="1" parent="D15QKk4ikK3wPIelzojk-1" source="D15QKk4ikK3wPIelzojk-3" target="D15QKk4ikK3wPIelzojk-24">
          <mxGeometry relative="1" as="geometry" />
        </mxCell>
        <mxCell id="knTTwI4g2bbmNOiAuJ_e-20" style="edgeStyle=orthogonalEdgeStyle;rounded=0;orthogonalLoop=1;jettySize=auto;html=1;exitX=0;exitY=0.5;exitDx=0;exitDy=0;entryX=1;entryY=0.5;entryDx=0;entryDy=0;" edge="1" parent="D15QKk4ikK3wPIelzojk-1" source="D15QKk4ikK3wPIelzojk-6" target="D15QKk4ikK3wPIelzojk-29">
          <mxGeometry relative="1" as="geometry" />
        </mxCell>
        <mxCell id="knTTwI4g2bbmNOiAuJ_e-101" style="edgeStyle=orthogonalEdgeStyle;rounded=0;orthogonalLoop=1;jettySize=auto;html=1;exitX=0.5;exitY=1;exitDx=0;exitDy=0;entryX=0.5;entryY=1;entryDx=0;entryDy=0;" edge="1" parent="D15QKk4ikK3wPIelzojk-1" source="knTTwI4g2bbmNOiAuJ_e-95" target="D15QKk4ikK3wPIelzojk-3">
          <mxGeometry relative="1" as="geometry" />
        </mxCell>
      </root>
    </mxGraphModel>
  </diagram>
</mxfile>
